<svg xmlns="http://www.w3.org/2000/svg" width="256" height="256" viewBox="0 0 256 256" fill="none"><metadata><rdf:RDF xmlns:rdf="http://www.w3.org/1999/02/22-rdf-syntax-ns#" xmlns:dc="http://purl.org/dc/elements/1.1/"><rdf:Description><dc:creator>RealFaviconGenerator</dc:creator><dc:source>https://realfavicongenerator.net</dc:source></rdf:Description></rdf:RDF></metadata><g clip-path="url(#paint0_angular_228_29_clip_path)" data-figma-skip-parse="true"><g transform="matrix(0 0.128 -0.128 0 128 128)"><foreignObject x="-1012.21" y="-1012.21" width="2024.41" height="2024.41"><div xmlns="http://www.w3.org/1999/xhtml" style="background:conic-gradient(from 90deg,rgba(222, 94, 107, 1) 0deg,rgba(228, 101, 92, 1) 11.471deg,rgba(244, 163, 106, 1) 39.614deg,rgba(255, 198, 118, 1) 68.9051deg,rgba(255, 213, 150, 1) 99.192deg,rgba(89, 130, 129, 1) 141.491deg,rgba(105, 142, 221, 1) 185.192deg,rgba(198, 151, 245, 1) 221.832deg,rgba(234, 155, 201, 1) 259.151deg,rgba(255, 168, 168, 1) 293.679deg,rgba(213, 111, 140, 1) 313.438deg,rgba(217, 88, 124, 1) 347.507deg,rgba(222, 94, 107, 1) 360deg);height:100%;width:100%;opacity:1"></div></foreignObject></g></g><path d="M256 111.783C256 79.0205 230.148 52.4556 198.258 52.4556C193.867 52.4556 189.594 52.9694 185.492 53.9246C182.828 23.6907 158.11 0 128 0C97.883 0 73.164 23.6907 70.508 53.9246C66.3985 52.9694 62.125 52.4556 57.7425 52.4556C25.8515 52.4556 0 79.0205 0 111.783C0 136.237 14.3985 157.238 34.953 166.318C29.8045 175.197 26.836 185.577 26.836 196.665C26.836 229.427 52.6875 256 84.578 256C101.891 256 117.414 248.156 128 235.753C138.578 248.157 154.11 256 171.422 256C203.313 256 229.164 229.427 229.164 196.665C229.164 185.578 226.195 175.198 221.039 166.318C241.602 157.238 256 136.236 256 111.783ZM128 187.873C101.218 187.873 79.5 165.571 79.5 138.035C79.5 110.514 101.219 88.2046 128 88.2046C154.781 88.2046 176.492 110.515 176.492 138.035C176.492 165.571 154.782 187.873 128 187.873Z" data-figma-gradient-fill="{&quot;type&quot;:&quot;GRADIENT_ANGULAR&quot;,&quot;stops&quot;:[{&quot;color&quot;:{&quot;r&quot;:0.89411765336990356,&quot;g&quot;:0.39607843756675720,&quot;b&quot;:0.36078432202339172,&quot;a&quot;:1.0},&quot;position&quot;:0.031863830983638763},{&quot;color&quot;:{&quot;r&quot;:0.95686274766921997,&quot;g&quot;:0.63921570777893066,&quot;b&quot;:0.41568627953529358,&quot;a&quot;:1.0},&quot;position&quot;:0.11003881692886353},{&quot;color&quot;:{&quot;r&quot;:1.0,&quot;g&quot;:0.77647060155868530,&quot;b&quot;:0.46274510025978088,&quot;a&quot;:1.0},&quot;position&quot;:0.19140313565731049},{&quot;color&quot;:{&quot;r&quot;:1.0,&quot;g&quot;:0.83529412746429443,&quot;b&quot;:0.58823531866073608,&quot;a&quot;:1.0},&quot;position&quot;:0.27553346753120422},{&quot;color&quot;:{&quot;r&quot;:0.34901961684226990,&quot;g&quot;:0.50980395078659058,&quot;b&quot;:0.50588238239288330,&quot;a&quot;:1.0},&quot;position&quot;:0.39303043484687805},{&quot;color&quot;:{&quot;r&quot;:0.41176471114158630,&quot;g&quot;:0.55686277151107788,&quot;b&quot;:0.86666667461395264,&quot;a&quot;:1.0},&quot;position&quot;:0.51442307233810425},{&quot;color&quot;:{&quot;r&quot;:0.77647060155868530,&quot;g&quot;:0.59215688705444336,&quot;b&quot;:0.96078431606292725,&quot;a&quot;:1.0},&quot;position&quot;:0.61620020866394043},{&quot;color&quot;:{&quot;r&quot;:0.91764706373214722,&quot;g&quot;:0.60784316062927246,&quot;b&quot;:0.78823530673980713,&quot;a&quot;:1.0},&quot;position&quot;:0.71986275911331177},{&quot;color&quot;:{&quot;r&quot;:1.0,&quot;g&quot;:0.65882354974746704,&quot;b&quot;:0.65882354974746704,&quot;a&quot;:1.0},&quot;position&quot;:0.81577420234680176},{&quot;color&quot;:{&quot;r&quot;:0.83529412746429443,&quot;g&quot;:0.43529412150382996,&quot;b&quot;:0.54901963472366333,&quot;a&quot;:1.0},&quot;position&quot;:0.87066221237182617},{&quot;color&quot;:{&quot;r&quot;:0.85098040103912354,&quot;g&quot;:0.34509804844856262,&quot;b&quot;:0.48627451062202454,&quot;a&quot;:1.0},&quot;position&quot;:0.96529722213745117}],&quot;transform&quot;:{&quot;m00&quot;:1.5675479713090149e-14,&quot;m01&quot;:-256.0,&quot;m02&quot;:256.0,&quot;m10&quot;:256.0,&quot;m11&quot;:1.5675479713090149e-14,&quot;m12&quot;:0.0},&quot;opacity&quot;:1.0,&quot;blendMode&quot;:&quot;NORMAL&quot;,&quot;stopsVar&quot;:[{&quot;color&quot;:{&quot;r&quot;:0.89411765336990356,&quot;g&quot;:0.39607843756675720,&quot;b&quot;:0.36078432202339172,&quot;a&quot;:1.0},&quot;position&quot;:0.031863830983638763},{&quot;color&quot;:{&quot;r&quot;:0.95686274766921997,&quot;g&quot;:0.63921570777893066,&quot;b&quot;:0.41568627953529358,&quot;a&quot;:1.0},&quot;position&quot;:0.11003881692886353},{&quot;color&quot;:{&quot;r&quot;:1.0,&quot;g&quot;:0.77647060155868530,&quot;b&quot;:0.46274510025978088,&quot;a&quot;:1.0},&quot;position&quot;:0.19140313565731049},{&quot;color&quot;:{&quot;r&quot;:1.0,&quot;g&quot;:0.83529412746429443,&quot;b&quot;:0.58823531866073608,&quot;a&quot;:1.0},&quot;position&quot;:0.27553346753120422},{&quot;color&quot;:{&quot;r&quot;:0.34901961684226990,&quot;g&quot;:0.50980395078659058,&quot;b&quot;:0.50588238239288330,&quot;a&quot;:1.0},&quot;position&quot;:0.39303043484687805},{&quot;color&quot;:{&quot;r&quot;:0.41176471114158630,&quot;g&quot;:0.55686277151107788,&quot;b&quot;:0.86666667461395264,&quot;a&quot;:1.0},&quot;position&quot;:0.51442307233810425},{&quot;color&quot;:{&quot;r&quot;:0.77647060155868530,&quot;g&quot;:0.59215688705444336,&quot;b&quot;:0.96078431606292725,&quot;a&quot;:1.0},&quot;position&quot;:0.61620020866394043},{&quot;color&quot;:{&quot;r&quot;:0.91764706373214722,&quot;g&quot;:0.60784316062927246,&quot;b&quot;:0.78823530673980713,&quot;a&quot;:1.0},&quot;position&quot;:0.71986275911331177},{&quot;color&quot;:{&quot;r&quot;:1.0,&quot;g&quot;:0.65882354974746704,&quot;b&quot;:0.65882354974746704,&quot;a&quot;:1.0},&quot;position&quot;:0.81577420234680176},{&quot;color&quot;:{&quot;r&quot;:0.83529412746429443,&quot;g&quot;:0.43529412150382996,&quot;b&quot;:0.54901963472366333,&quot;a&quot;:1.0},&quot;position&quot;:0.87066221237182617},{&quot;color&quot;:{&quot;r&quot;:0.85098040103912354,&quot;g&quot;:0.34509804844856262,&quot;b&quot;:0.48627451062202454,&quot;a&quot;:1.0},&quot;position&quot;:0.96529722213745117}],&quot;visible&quot;:true}"></path><defs>
<clipPath id="paint0_angular_228_29_clip_path"><path d="M256 111.783C256 79.0205 230.148 52.4556 198.258 52.4556C193.867 52.4556 189.594 52.9694 185.492 53.9246C182.828 23.6907 158.11 0 128 0C97.883 0 73.164 23.6907 70.508 53.9246C66.3985 52.9694 62.125 52.4556 57.7425 52.4556C25.8515 52.4556 0 79.0205 0 111.783C0 136.237 14.3985 157.238 34.953 166.318C29.8045 175.197 26.836 185.577 26.836 196.665C26.836 229.427 52.6875 256 84.578 256C101.891 256 117.414 248.156 128 235.753C138.578 248.157 154.11 256 171.422 256C203.313 256 229.164 229.427 229.164 196.665C229.164 185.578 226.195 175.198 221.039 166.318C241.602 157.238 256 136.236 256 111.783ZM128 187.873C101.218 187.873 79.5 165.571 79.5 138.035C79.5 110.514 101.219 88.2046 128 88.2046C154.781 88.2046 176.492 110.515 176.492 138.035C176.492 165.571 154.782 187.873 128 187.873Z"></path></clipPath></defs></svg>